ISO-10303-21;
HEADER;
/* Generated by software containing ST-Developer
 * from STEP Tools, Inc. (www.steptools.com) 
 */

FILE_DESCRIPTION(
/* description */ (''),
/* implementation_level */ '2;1');

FILE_NAME(
/* name */ 'spelarocase.step',
/* time_stamp */ '2026-09-20T12:21:19+02:00',
/* author */ (''),
/* organization */ (''),
/* preprocessor_version */ 'ST-DEVELOPER v20.2',
/* originating_system */ 'Autodesk Translation Framework v15.15.0.0',
/* authorisation */ '');

FILE_SCHEMA (('AUTOMOTIVE_DESIGN { 1 0 10303 214 3 1 1 }'));
ENDSEC;

DATA;
#10=MECHANICAL_DESIGN_GEOMETRIC_PRESENTATION_REPRESENTATION('',(#13),#1015);
#11=SHAPE_REPRESENTATION_RELATIONSHIP('SRR','None',#1022,#12);
#12=ADVANCED_BREP_SHAPE_REPRESENTATION('',(#14),#1014);
#13=STYLED_ITEM('',(#1031),#14);
#14=MANIFOLD_SOLID_BREP('Body1',#603);
#15=CYLINDRICAL_SURFACE('',#634,0.900500000000015);
#16=CYLINDRICAL_SURFACE('',#636,0.900500000000015);
#17=CYLINDRICAL_SURFACE('',#638,0.900500000000015);
#18=CYLINDRICAL_SURFACE('',#640,0.900275855444264);
#19=CYLINDRICAL_SURFACE('',#642,6.5);
#20=CYLINDRICAL_SURFACE('',#645,6.5);
#21=CYLINDRICAL_SURFACE('',#647,6.5);
#22=CYLINDRICAL_SURFACE('',#649,6.5);
#23=CYLINDRICAL_SURFACE('',#656,9.60293209509327);
#24=CYLINDRICAL_SURFACE('',#658,8.60232539522727);
#25=CYLINDRICAL_SURFACE('',#660,7.07106791723259);
#26=CYLINDRICAL_SURFACE('',#662,8.06225786843555);
#27=FACE_BOUND('',#67,.T.);
#28=FACE_BOUND('',#68,.T.);
#29=FACE_BOUND('',#69,.T.);
#30=FACE_BOUND('',#70,.T.);
#31=FACE_BOUND('',#84,.T.);
#32=FACE_BOUND('',#85,.T.);
#33=FACE_BOUND('',#86,.T.);
#34=FACE_BOUND('',#87,.T.);
#35=FACE_OUTER_BOUND('',#65,.T.);
#36=FACE_OUTER_BOUND('',#66,.T.);
#37=FACE_OUTER_BOUND('',#71,.T.);
#38=FACE_OUTER_BOUND('',#72,.T.);
#39=FACE_OUTER_BOUND('',#73,.T.);
#40=FACE_OUTER_BOUND('',#74,.T.);
#41=FACE_OUTER_BOUND('',#75,.T.);
#42=FACE_OUTER_BOUND('',#76,.T.);
#43=FACE_OUTER_BOUND('',#77,.T.);
#44=FACE_OUTER_BOUND('',#78,.T.);
#45=FACE_OUTER_BOUND('',#79,.T.);
#46=FACE_OUTER_BOUND('',#80,.T.);
#47=FACE_OUTER_BOUND('',#81,.T.);
#48=FACE_OUTER_BOUND('',#82,.T.);
#49=FACE_OUTER_BOUND('',#83,.T.);
#50=FACE_OUTER_BOUND('',#88,.T.);
#51=FACE_OUTER_BOUND('',#89,.T.);
#52=FACE_OUTER_BOUND('',#90,.T.);
#53=FACE_OUTER_BOUND('',#91,.T.);
#54=FACE_OUTER_BOUND('',#92,.T.);
#55=FACE_OUTER_BOUND('',#93,.T.);
#56=FACE_OUTER_BOUND('',#94,.T.);
#57=FACE_OUTER_BOUND('',#95,.T.);
#58=FACE_OUTER_BOUND('',#96,.T.);
#59=FACE_OUTER_BOUND('',#97,.T.);
#60=FACE_OUTER_BOUND('',#98,.T.);
#61=FACE_OUTER_BOUND('',#99,.T.);
#62=FACE_OUTER_BOUND('',#100,.T.);
#63=FACE_OUTER_BOUND('',#101,.T.);
#64=FACE_OUTER_BOUND('',#102,.T.);
#65=EDGE_LOOP('',(#387,#388,#389,#390,#391,#392,#393,#394));
#66=EDGE_LOOP('',(#395,#396,#397,#398,#399,#400,#401,#402));
#67=EDGE_LOOP('',(#403));
#68=EDGE_LOOP('',(#404));
#69=EDGE_LOOP('',(#405));
#70=EDGE_LOOP('',(#406));
#71=EDGE_LOOP('',(#407,#408,#409,#410));
#72=EDGE_LOOP('',(#411,#412,#413,#414,#415,#416,#417,#418,#419,#420,#421,
#422));
#73=EDGE_LOOP('',(#423,#424,#425,#426));
#74=EDGE_LOOP('',(#427,#428,#429,#430));
#75=EDGE_LOOP('',(#431,#432,#433,#434));
#76=EDGE_LOOP('',(#435,#436,#437,#438));
#77=EDGE_LOOP('',(#439,#440,#441,#442));
#78=EDGE_LOOP('',(#443,#444,#445,#446));
#79=EDGE_LOOP('',(#447,#448,#449,#450));
#80=EDGE_LOOP('',(#451,#452,#453,#454));
#81=EDGE_LOOP('',(#455,#456,#457,#458));
#82=EDGE_LOOP('',(#459,#460,#461,#462));
#83=EDGE_LOOP('',(#463,#464,#465,#466,#467,#468,#469,#470,#471,#472,#473,
#474,#475,#476,#477,#478,#479,#480,#481,#482));
#84=EDGE_LOOP('',(#483));
#85=EDGE_LOOP('',(#484));
#86=EDGE_LOOP('',(#485));
#87=EDGE_LOOP('',(#486));
#88=EDGE_LOOP('',(#487,#488,#489,#490));
#89=EDGE_LOOP('',(#491,#492,#493,#494));
#90=EDGE_LOOP('',(#495,#496,#497,#498));
#91=EDGE_LOOP('',(#499,#500,#501,#502));
#92=EDGE_LOOP('',(#503,#504,#505,#506));
#93=EDGE_LOOP('',(#507,#508,#509,#510));
#94=EDGE_LOOP('',(#511,#512,#513,#514));
#95=EDGE_LOOP('',(#515,#516,#517,#518,#519,#520,#521,#522,#523,#524,#525,
#526));
#96=EDGE_LOOP('',(#527,#528,#529,#530));
#97=EDGE_LOOP('',(#531,#532,#533,#534));
#98=EDGE_LOOP('',(#535,#536,#537,#538));
#99=EDGE_LOOP('',(#539,#540,#541,#542));
#100=EDGE_LOOP('',(#543,#544,#545,#546));
#101=EDGE_LOOP('',(#547,#548,#549,#550));
#102=EDGE_LOOP('',(#551,#552,#553,#554));
#103=LINE('',#847,#163);
#104=LINE('',#851,#164);
#105=LINE('',#855,#165);
#106=LINE('',#858,#166);
#107=LINE('',#862,#167);
#108=LINE('',#866,#168);
#109=LINE('',#870,#169);
#110=LINE('',#874,#170);
#111=LINE('',#887,#171);
#112=LINE('',#889,#172);
#113=LINE('',#891,#173);
#114=LINE('',#892,#174);
#115=LINE('',#895,#175);
#116=LINE('',#897,#176);
#117=LINE('',#899,#177);
#118=LINE('',#900,#178);
#119=LINE('',#902,#179);
#120=LINE('',#904,#180);
#121=LINE('',#906,#181);
#122=LINE('',#908,#182);
#123=LINE('',#910,#183);
#124=LINE('',#911,#184);
#125=LINE('',#915,#185);
#126=LINE('',#916,#186);
#127=LINE('',#917,#187);
#128=LINE('',#921,#188);
#129=LINE('',#925,#189);
#130=LINE('',#929,#190);
#131=LINE('',#933,#191);
#132=LINE('',#936,#192);
#133=LINE('',#939,#193);
#134=LINE('',#942,#194);
#135=LINE('',#943,#195);
#136=LINE('',#947,#196);
#137=LINE('',#951,#197);
#138=LINE('',#955,#198);
#139=LINE('',#958,#199);
#140=LINE('',#962,#200);
#141=LINE('',#966,#201);
#142=LINE('',#970,#202);
#143=LINE('',#974,#203);
#144=LINE('',#975,#204);
#145=LINE('',#976,#205);
#146=LINE('',#977,#206);
#147=LINE('',#979,#207);
#148=LINE('',#980,#208);
#149=LINE('',#982,#209);
#150=LINE('',#984,#210);
#151=LINE('',#985,#211);
#152=LINE('',#988,#212);
#153=LINE('',#989,#213);
#154=LINE('',#992,#214);
#155=LINE('',#995,#215);
#156=LINE('',#997,#216);
#157=LINE('',#999,#217);
#158=LINE('',#1000,#218);
#159=LINE('',#1001,#219);
#160=LINE('',#1004,#220);
#161=LINE('',#1006,#221);
#162=LINE('',#1008,#222);
#163=VECTOR('',#677,10.);
#164=VECTOR('',#680,10.);
#165=VECTOR('',#683,10.);
#166=VECTOR('',#686,10.);
#167=VECTOR('',#689,10.);
#168=VECTOR('',#692,10.);
#169=VECTOR('',#695,10.);
#170=VECTOR('',#698,10.);
#171=VECTOR('',#711,10.);
#172=VECTOR('',#712,10.);
#173=VECTOR('',#713,10.);
#174=VECTOR('',#714,10.);
#175=VECTOR('',#717,10.);
#176=VECTOR('',#718,10.);
#177=VECTOR('',#719,10.);
#178=VECTOR('',#720,10.);
#179=VECTOR('',#721,10.);
#180=VECTOR('',#722,10.);
#181=VECTOR('',#723,10.);
#182=VECTOR('',#724,10.);
#183=VECTOR('',#725,10.);
#184=VECTOR('',#726,10.);
#185=VECTOR('',#729,10.);
#186=VECTOR('',#730,10.);
#187=VECTOR('',#731,10.);
#188=VECTOR('',#736,0.900500000000015);
#189=VECTOR('',#741,0.900500000000015);
#190=VECTOR('',#746,0.900500000000015);
#191=VECTOR('',#751,0.900275855444264);
#192=VECTOR('',#754,10.);
#193=VECTOR('',#757,10.);
#194=VECTOR('',#760,10.);
#195=VECTOR('',#761,10.);
#196=VECTOR('',#766,10.);
#197=VECTOR('',#771,10.);
#198=VECTOR('',#776,10.);
#199=VECTOR('',#779,10.);
#200=VECTOR('',#782,10.);
#201=VECTOR('',#785,10.);
#202=VECTOR('',#788,10.);
#203=VECTOR('',#791,10.);
#204=VECTOR('',#792,10.);
#205=VECTOR('',#793,10.);
#206=VECTOR('',#794,10.);
#207=VECTOR('',#797,10.);
#208=VECTOR('',#798,10.);
#209=VECTOR('',#801,10.);
#210=VECTOR('',#804,10.);
#211=VECTOR('',#805,10.);
#212=VECTOR('',#810,10.);
#213=VECTOR('',#811,10.);
#214=VECTOR('',#816,10.);
#215=VECTOR('',#819,10.);
#216=VECTOR('',#820,10.);
#217=VECTOR('',#821,10.);
#218=VECTOR('',#822,10.);
#219=VECTOR('',#823,10.);
#220=VECTOR('',#828,10.);
#221=VECTOR('',#831,10.);
#222=VECTOR('',#834,10.);
#223=CIRCLE('',#618,7.07106791723259);
#224=CIRCLE('',#619,8.06225786843555);
#225=CIRCLE('',#620,9.60293209509327);
#226=CIRCLE('',#621,8.60232539522727);
#227=CIRCLE('',#623,6.49999999999997);
#228=CIRCLE('',#624,6.49999999999999);
#229=CIRCLE('',#625,6.49999999999998);
#230=CIRCLE('',#626,6.49999999999999);
#231=CIRCLE('',#627,0.900500000000015);
#232=CIRCLE('',#628,0.900500000000015);
#233=CIRCLE('',#629,0.900500000000015);
#234=CIRCLE('',#630,0.900275855444264);
#235=CIRCLE('',#635,0.900500000000015);
#236=CIRCLE('',#637,0.900500000000015);
#237=CIRCLE('',#639,0.900500000000015);
#238=CIRCLE('',#641,0.900275855444264);
#239=CIRCLE('',#643,6.5);
#240=CIRCLE('',#646,6.5);
#241=CIRCLE('',#648,6.5);
#242=CIRCLE('',#650,6.5);
#243=CIRCLE('',#652,7.07106791723259);
#244=CIRCLE('',#653,8.60232539522727);
#245=CIRCLE('',#654,9.60293209509327);
#246=CIRCLE('',#655,8.06225786843555);
#247=VERTEX_POINT('',#843);
#248=VERTEX_POINT('',#844);
#249=VERTEX_POINT('',#846);
#250=VERTEX_POINT('',#848);
#251=VERTEX_POINT('',#850);
#252=VERTEX_POINT('',#852);
#253=VERTEX_POINT('',#854);
#254=VERTEX_POINT('',#856);
#255=VERTEX_POINT('',#860);
#256=VERTEX_POINT('',#861);
#257=VERTEX_POINT('',#863);
#258=VERTEX_POINT('',#865);
#259=VERTEX_POINT('',#867);
#260=VERTEX_POINT('',#869);
#261=VERTEX_POINT('',#871);
#262=VERTEX_POINT('',#873);
#263=VERTEX_POINT('',#876);
#264=VERTEX_POINT('',#878);
#265=VERTEX_POINT('',#880);
#266=VERTEX_POINT('',#882);
#267=VERTEX_POINT('',#885);
#268=VERTEX_POINT('',#886);
#269=VERTEX_POINT('',#888);
#270=VERTEX_POINT('',#890);
#271=VERTEX_POINT('',#894);
#272=VERTEX_POINT('',#896);
#273=VERTEX_POINT('',#898);
#274=VERTEX_POINT('',#901);
#275=VERTEX_POINT('',#903);
#276=VERTEX_POINT('',#905);
#277=VERTEX_POINT('',#907);
#278=VERTEX_POINT('',#909);
#279=VERTEX_POINT('',#913);
#280=VERTEX_POINT('',#914);
#281=VERTEX_POINT('',#919);
#282=VERTEX_POINT('',#923);
#283=VERTEX_POINT('',#927);
#284=VERTEX_POINT('',#931);
#285=VERTEX_POINT('',#935);
#286=VERTEX_POINT('',#937);
#287=VERTEX_POINT('',#941);
#288=VERTEX_POINT('',#945);
#289=VERTEX_POINT('',#949);
#290=VERTEX_POINT('',#953);
#291=VERTEX_POINT('',#957);
#292=VERTEX_POINT('',#959);
#293=VERTEX_POINT('',#961);
#294=VERTEX_POINT('',#963);
#295=VERTEX_POINT('',#965);
#296=VERTEX_POINT('',#967);
#297=VERTEX_POINT('',#969);
#298=VERTEX_POINT('',#971);
#299=VERTEX_POINT('',#973);
#300=VERTEX_POINT('',#994);
#301=VERTEX_POINT('',#996);
#302=VERTEX_POINT('',#998);
#303=EDGE_CURVE('',#247,#248,#223,.T.);
#304=EDGE_CURVE('',#248,#249,#103,.T.);
#305=EDGE_CURVE('',#249,#250,#224,.T.);
#306=EDGE_CURVE('',#251,#250,#104,.T.);
#307=EDGE_CURVE('',#251,#252,#225,.T.);
#308=EDGE_CURVE('',#252,#253,#105,.T.);
#309=EDGE_CURVE('',#253,#254,#226,.T.);
#310=EDGE_CURVE('',#247,#254,#106,.T.);
#311=EDGE_CURVE('',#255,#256,#107,.T.);
#312=EDGE_CURVE('',#256,#257,#227,.T.);
#313=EDGE_CURVE('',#257,#258,#108,.T.);
#314=EDGE_CURVE('',#258,#259,#228,.T.);
#315=EDGE_CURVE('',#259,#260,#109,.T.);
#316=EDGE_CURVE('',#260,#261,#229,.T.);
#317=EDGE_CURVE('',#261,#262,#110,.T.);
#318=EDGE_CURVE('',#262,#255,#230,.T.);
#319=EDGE_CURVE('',#263,#263,#231,.T.);
#320=EDGE_CURVE('',#264,#264,#232,.T.);
#321=EDGE_CURVE('',#265,#265,#233,.T.);
#322=EDGE_CURVE('',#266,#266,#234,.T.);
#323=EDGE_CURVE('',#267,#268,#111,.T.);
#324=EDGE_CURVE('',#269,#267,#112,.T.);
#325=EDGE_CURVE('',#270,#269,#113,.T.);
#326=EDGE_CURVE('',#268,#270,#114,.T.);
#327=EDGE_CURVE('',#269,#271,#115,.T.);
#328=EDGE_CURVE('',#271,#272,#116,.T.);
#329=EDGE_CURVE('',#272,#273,#117,.T.);
#330=EDGE_CURVE('',#260,#273,#118,.T.);
#331=EDGE_CURVE('',#274,#259,#119,.T.);
#332=EDGE_CURVE('',#274,#275,#120,.T.);
#333=EDGE_CURVE('',#275,#276,#121,.T.);
#334=EDGE_CURVE('',#276,#277,#122,.T.);
#335=EDGE_CURVE('',#277,#278,#123,.T.);
#336=EDGE_CURVE('',#278,#270,#124,.T.);
#337=EDGE_CURVE('',#279,#280,#125,.T.);
#338=EDGE_CURVE('',#272,#279,#126,.T.);
#339=EDGE_CURVE('',#271,#280,#127,.T.);
#340=EDGE_CURVE('',#281,#281,#235,.T.);
#341=EDGE_CURVE('',#281,#263,#128,.T.);
#342=EDGE_CURVE('',#282,#282,#236,.T.);
#343=EDGE_CURVE('',#282,#265,#129,.T.);
#344=EDGE_CURVE('',#283,#283,#237,.T.);
#345=EDGE_CURVE('',#283,#264,#130,.T.);
#346=EDGE_CURVE('',#284,#284,#238,.T.);
#347=EDGE_CURVE('',#284,#266,#131,.T.);
#348=EDGE_CURVE('',#285,#256,#132,.T.);
#349=EDGE_CURVE('',#285,#286,#239,.T.);
#350=EDGE_CURVE('',#286,#257,#133,.T.);
#351=EDGE_CURVE('',#287,#255,#134,.T.);
#352=EDGE_CURVE('',#287,#285,#135,.T.);
#353=EDGE_CURVE('',#288,#274,#240,.T.);
#354=EDGE_CURVE('',#258,#288,#136,.T.);
#355=EDGE_CURVE('',#273,#289,#241,.T.);
#356=EDGE_CURVE('',#289,#261,#137,.T.);
#357=EDGE_CURVE('',#290,#287,#242,.T.);
#358=EDGE_CURVE('',#262,#290,#138,.T.);
#359=EDGE_CURVE('',#291,#279,#139,.T.);
#360=EDGE_CURVE('',#292,#291,#243,.T.);
#361=EDGE_CURVE('',#293,#292,#140,.T.);
#362=EDGE_CURVE('',#294,#293,#244,.T.);
#363=EDGE_CURVE('',#295,#294,#141,.T.);
#364=EDGE_CURVE('',#296,#295,#245,.T.);
#365=EDGE_CURVE('',#297,#296,#142,.T.);
#366=EDGE_CURVE('',#298,#297,#246,.T.);
#367=EDGE_CURVE('',#299,#298,#143,.T.);
#368=EDGE_CURVE('',#299,#275,#144,.T.);
#369=EDGE_CURVE('',#288,#286,#145,.T.);
#370=EDGE_CURVE('',#289,#290,#146,.T.);
#371=EDGE_CURVE('',#296,#251,#147,.T.);
#372=EDGE_CURVE('',#252,#295,#148,.T.);
#373=EDGE_CURVE('',#250,#297,#149,.T.);
#374=EDGE_CURVE('',#294,#253,#150,.T.);
#375=EDGE_CURVE('',#254,#293,#151,.T.);
#376=EDGE_CURVE('',#292,#247,#152,.T.);
#377=EDGE_CURVE('',#248,#291,#153,.T.);
#378=EDGE_CURVE('',#298,#249,#154,.T.);
#379=EDGE_CURVE('',#268,#300,#155,.T.);
#380=EDGE_CURVE('',#300,#301,#156,.T.);
#381=EDGE_CURVE('',#301,#302,#157,.T.);
#382=EDGE_CURVE('',#302,#299,#158,.T.);
#383=EDGE_CURVE('',#280,#267,#159,.T.);
#384=EDGE_CURVE('',#278,#300,#160,.T.);
#385=EDGE_CURVE('',#276,#302,#161,.T.);
#386=EDGE_CURVE('',#277,#301,#162,.T.);
#387=ORIENTED_EDGE('',*,*,#303,.T.);
#388=ORIENTED_EDGE('',*,*,#304,.T.);
#389=ORIENTED_EDGE('',*,*,#305,.T.);
#390=ORIENTED_EDGE('',*,*,#306,.F.);
#391=ORIENTED_EDGE('',*,*,#307,.T.);
#392=ORIENTED_EDGE('',*,*,#308,.T.);
#393=ORIENTED_EDGE('',*,*,#309,.T.);
#394=ORIENTED_EDGE('',*,*,#310,.F.);
#395=ORIENTED_EDGE('',*,*,#311,.T.);
#396=ORIENTED_EDGE('',*,*,#312,.T.);
#397=ORIENTED_EDGE('',*,*,#313,.T.);
#398=ORIENTED_EDGE('',*,*,#314,.T.);
#399=ORIENTED_EDGE('',*,*,#315,.T.);
#400=ORIENTED_EDGE('',*,*,#316,.T.);
#401=ORIENTED_EDGE('',*,*,#317,.T.);
#402=ORIENTED_EDGE('',*,*,#318,.T.);
#403=ORIENTED_EDGE('',*,*,#319,.T.);
#404=ORIENTED_EDGE('',*,*,#320,.T.);
#405=ORIENTED_EDGE('',*,*,#321,.T.);
#406=ORIENTED_EDGE('',*,*,#322,.T.);
#407=ORIENTED_EDGE('',*,*,#323,.F.);
#408=ORIENTED_EDGE('',*,*,#324,.F.);
#409=ORIENTED_EDGE('',*,*,#325,.F.);
#410=ORIENTED_EDGE('',*,*,#326,.F.);
#411=ORIENTED_EDGE('',*,*,#325,.T.);
#412=ORIENTED_EDGE('',*,*,#327,.T.);
#413=ORIENTED_EDGE('',*,*,#328,.T.);
#414=ORIENTED_EDGE('',*,*,#329,.T.);
#415=ORIENTED_EDGE('',*,*,#330,.F.);
#416=ORIENTED_EDGE('',*,*,#315,.F.);
#417=ORIENTED_EDGE('',*,*,#331,.F.);
#418=ORIENTED_EDGE('',*,*,#332,.T.);
#419=ORIENTED_EDGE('',*,*,#333,.T.);
#420=ORIENTED_EDGE('',*,*,#334,.T.);
#421=ORIENTED_EDGE('',*,*,#335,.T.);
#422=ORIENTED_EDGE('',*,*,#336,.T.);
#423=ORIENTED_EDGE('',*,*,#337,.F.);
#424=ORIENTED_EDGE('',*,*,#338,.F.);
#425=ORIENTED_EDGE('',*,*,#328,.F.);
#426=ORIENTED_EDGE('',*,*,#339,.T.);
#427=ORIENTED_EDGE('',*,*,#340,.F.);
#428=ORIENTED_EDGE('',*,*,#341,.T.);
#429=ORIENTED_EDGE('',*,*,#319,.F.);
#430=ORIENTED_EDGE('',*,*,#341,.F.);
#431=ORIENTED_EDGE('',*,*,#342,.F.);
#432=ORIENTED_EDGE('',*,*,#343,.T.);
#433=ORIENTED_EDGE('',*,*,#321,.F.);
#434=ORIENTED_EDGE('',*,*,#343,.F.);
#435=ORIENTED_EDGE('',*,*,#344,.F.);
#436=ORIENTED_EDGE('',*,*,#345,.T.);
#437=ORIENTED_EDGE('',*,*,#320,.F.);
#438=ORIENTED_EDGE('',*,*,#345,.F.);
#439=ORIENTED_EDGE('',*,*,#346,.F.);
#440=ORIENTED_EDGE('',*,*,#347,.T.);
#441=ORIENTED_EDGE('',*,*,#322,.F.);
#442=ORIENTED_EDGE('',*,*,#347,.F.);
#443=ORIENTED_EDGE('',*,*,#348,.F.);
#444=ORIENTED_EDGE('',*,*,#349,.T.);
#445=ORIENTED_EDGE('',*,*,#350,.T.);
#446=ORIENTED_EDGE('',*,*,#312,.F.);
#447=ORIENTED_EDGE('',*,*,#348,.T.);
#448=ORIENTED_EDGE('',*,*,#311,.F.);
#449=ORIENTED_EDGE('',*,*,#351,.F.);
#450=ORIENTED_EDGE('',*,*,#352,.T.);
#451=ORIENTED_EDGE('',*,*,#353,.T.);
#452=ORIENTED_EDGE('',*,*,#331,.T.);
#453=ORIENTED_EDGE('',*,*,#314,.F.);
#454=ORIENTED_EDGE('',*,*,#354,.T.);
#455=ORIENTED_EDGE('',*,*,#355,.T.);
#456=ORIENTED_EDGE('',*,*,#356,.T.);
#457=ORIENTED_EDGE('',*,*,#316,.F.);
#458=ORIENTED_EDGE('',*,*,#330,.T.);
#459=ORIENTED_EDGE('',*,*,#357,.T.);
#460=ORIENTED_EDGE('',*,*,#351,.T.);
#461=ORIENTED_EDGE('',*,*,#318,.F.);
#462=ORIENTED_EDGE('',*,*,#358,.T.);
#463=ORIENTED_EDGE('',*,*,#338,.T.);
#464=ORIENTED_EDGE('',*,*,#359,.F.);
#465=ORIENTED_EDGE('',*,*,#360,.F.);
#466=ORIENTED_EDGE('',*,*,#361,.F.);
#467=ORIENTED_EDGE('',*,*,#362,.F.);
#468=ORIENTED_EDGE('',*,*,#363,.F.);
#469=ORIENTED_EDGE('',*,*,#364,.F.);
#470=ORIENTED_EDGE('',*,*,#365,.F.);
#471=ORIENTED_EDGE('',*,*,#366,.F.);
#472=ORIENTED_EDGE('',*,*,#367,.F.);
#473=ORIENTED_EDGE('',*,*,#368,.T.);
#474=ORIENTED_EDGE('',*,*,#332,.F.);
#475=ORIENTED_EDGE('',*,*,#353,.F.);
#476=ORIENTED_EDGE('',*,*,#369,.T.);
#477=ORIENTED_EDGE('',*,*,#349,.F.);
#478=ORIENTED_EDGE('',*,*,#352,.F.);
#479=ORIENTED_EDGE('',*,*,#357,.F.);
#480=ORIENTED_EDGE('',*,*,#370,.F.);
#481=ORIENTED_EDGE('',*,*,#355,.F.);
#482=ORIENTED_EDGE('',*,*,#329,.F.);
#483=ORIENTED_EDGE('',*,*,#340,.T.);
#484=ORIENTED_EDGE('',*,*,#342,.T.);
#485=ORIENTED_EDGE('',*,*,#344,.T.);
#486=ORIENTED_EDGE('',*,*,#346,.T.);
#487=ORIENTED_EDGE('',*,*,#371,.F.);
#488=ORIENTED_EDGE('',*,*,#364,.T.);
#489=ORIENTED_EDGE('',*,*,#372,.F.);
#490=ORIENTED_EDGE('',*,*,#307,.F.);
#491=ORIENTED_EDGE('',*,*,#371,.T.);
#492=ORIENTED_EDGE('',*,*,#306,.T.);
#493=ORIENTED_EDGE('',*,*,#373,.T.);
#494=ORIENTED_EDGE('',*,*,#365,.T.);
#495=ORIENTED_EDGE('',*,*,#374,.F.);
#496=ORIENTED_EDGE('',*,*,#362,.T.);
#497=ORIENTED_EDGE('',*,*,#375,.F.);
#498=ORIENTED_EDGE('',*,*,#309,.F.);
#499=ORIENTED_EDGE('',*,*,#372,.T.);
#500=ORIENTED_EDGE('',*,*,#363,.T.);
#501=ORIENTED_EDGE('',*,*,#374,.T.);
#502=ORIENTED_EDGE('',*,*,#308,.F.);
#503=ORIENTED_EDGE('',*,*,#376,.F.);
#504=ORIENTED_EDGE('',*,*,#360,.T.);
#505=ORIENTED_EDGE('',*,*,#377,.F.);
#506=ORIENTED_EDGE('',*,*,#303,.F.);
#507=ORIENTED_EDGE('',*,*,#375,.T.);
#508=ORIENTED_EDGE('',*,*,#361,.T.);
#509=ORIENTED_EDGE('',*,*,#376,.T.);
#510=ORIENTED_EDGE('',*,*,#310,.T.);
#511=ORIENTED_EDGE('',*,*,#378,.F.);
#512=ORIENTED_EDGE('',*,*,#366,.T.);
#513=ORIENTED_EDGE('',*,*,#373,.F.);
#514=ORIENTED_EDGE('',*,*,#305,.F.);
#515=ORIENTED_EDGE('',*,*,#323,.T.);
#516=ORIENTED_EDGE('',*,*,#379,.T.);
#517=ORIENTED_EDGE('',*,*,#380,.T.);
#518=ORIENTED_EDGE('',*,*,#381,.T.);
#519=ORIENTED_EDGE('',*,*,#382,.T.);
#520=ORIENTED_EDGE('',*,*,#367,.T.);
#521=ORIENTED_EDGE('',*,*,#378,.T.);
#522=ORIENTED_EDGE('',*,*,#304,.F.);
#523=ORIENTED_EDGE('',*,*,#377,.T.);
#524=ORIENTED_EDGE('',*,*,#359,.T.);
#525=ORIENTED_EDGE('',*,*,#337,.T.);
#526=ORIENTED_EDGE('',*,*,#383,.T.);
#527=ORIENTED_EDGE('',*,*,#383,.F.);
#528=ORIENTED_EDGE('',*,*,#339,.F.);
#529=ORIENTED_EDGE('',*,*,#327,.F.);
#530=ORIENTED_EDGE('',*,*,#324,.T.);
#531=ORIENTED_EDGE('',*,*,#326,.T.);
#532=ORIENTED_EDGE('',*,*,#336,.F.);
#533=ORIENTED_EDGE('',*,*,#384,.T.);
#534=ORIENTED_EDGE('',*,*,#379,.F.);
#535=ORIENTED_EDGE('',*,*,#382,.F.);
#536=ORIENTED_EDGE('',*,*,#385,.F.);
#537=ORIENTED_EDGE('',*,*,#333,.F.);
#538=ORIENTED_EDGE('',*,*,#368,.F.);
#539=ORIENTED_EDGE('',*,*,#380,.F.);
#540=ORIENTED_EDGE('',*,*,#384,.F.);
#541=ORIENTED_EDGE('',*,*,#335,.F.);
#542=ORIENTED_EDGE('',*,*,#386,.T.);
#543=ORIENTED_EDGE('',*,*,#381,.F.);
#544=ORIENTED_EDGE('',*,*,#386,.F.);
#545=ORIENTED_EDGE('',*,*,#334,.F.);
#546=ORIENTED_EDGE('',*,*,#385,.T.);
#547=ORIENTED_EDGE('',*,*,#356,.F.);
#548=ORIENTED_EDGE('',*,*,#370,.T.);
#549=ORIENTED_EDGE('',*,*,#358,.F.);
#550=ORIENTED_EDGE('',*,*,#317,.F.);
#551=ORIENTED_EDGE('',*,*,#350,.F.);
#552=ORIENTED_EDGE('',*,*,#369,.F.);
#553=ORIENTED_EDGE('',*,*,#354,.F.);
#554=ORIENTED_EDGE('',*,*,#313,.F.);
#555=PLANE('',#617);
#556=PLANE('',#622);
#557=PLANE('',#631);
#558=PLANE('',#632);
#559=PLANE('',#633);
#560=PLANE('',#644);
#561=PLANE('',#651);
#562=PLANE('',#657);
#563=PLANE('',#659);
#564=PLANE('',#661);
#565=PLANE('',#663);
#566=PLANE('',#664);
#567=PLANE('',#665);
#568=PLANE('',#666);
#569=PLANE('',#667);
#570=PLANE('',#668);
#571=PLANE('',#669);
#572=PLANE('',#670);
#573=ADVANCED_FACE('',(#35),#555,.F.);
#574=ADVANCED_FACE('',(#36,#27,#28,#29,#30),#556,.T.);
#575=ADVANCED_FACE('',(#37),#557,.F.);
#576=ADVANCED_FACE('',(#38),#558,.T.);
#577=ADVANCED_FACE('',(#39),#559,.F.);
#578=ADVANCED_FACE('',(#40),#15,.F.);
#579=ADVANCED_FACE('',(#41),#16,.F.);
#580=ADVANCED_FACE('',(#42),#17,.F.);
#581=ADVANCED_FACE('',(#43),#18,.F.);
#582=ADVANCED_FACE('',(#44),#19,.T.);
#583=ADVANCED_FACE('',(#45),#560,.T.);
#584=ADVANCED_FACE('',(#46),#20,.T.);
#585=ADVANCED_FACE('',(#47),#21,.T.);
#586=ADVANCED_FACE('',(#48),#22,.T.);
#587=ADVANCED_FACE('',(#49,#31,#32,#33,#34),#561,.F.);
#588=ADVANCED_FACE('',(#50),#23,.T.);
#589=ADVANCED_FACE('',(#51),#562,.T.);
#590=ADVANCED_FACE('',(#52),#24,.T.);
#591=ADVANCED_FACE('',(#53),#563,.T.);
#592=ADVANCED_FACE('',(#54),#25,.T.);
#593=ADVANCED_FACE('',(#55),#564,.T.);
#594=ADVANCED_FACE('',(#56),#26,.T.);
#595=ADVANCED_FACE('',(#57),#565,.T.);
#596=ADVANCED_FACE('',(#58),#566,.F.);
#597=ADVANCED_FACE('',(#59),#567,.F.);
#598=ADVANCED_FACE('',(#60),#568,.F.);
#599=ADVANCED_FACE('',(#61),#569,.F.);
#600=ADVANCED_FACE('',(#62),#570,.F.);
#601=ADVANCED_FACE('',(#63),#571,.T.);
#602=ADVANCED_FACE('',(#64),#572,.T.);
#603=CLOSED_SHELL('',(#573,#574,#575,#576,#577,#578,#579,#580,#581,#582,
#583,#584,#585,#586,#587,#588,#589,#590,#591,#592,#593,#594,#595,#596,#597,
#598,#599,#600,#601,#602));
#604=DERIVED_UNIT_ELEMENT(#606,1.);
#605=DERIVED_UNIT_ELEMENT(#1017,-3.);
#606=(
MASS_UNIT()
NAMED_UNIT(*)
SI_UNIT(.KILO.,.GRAM.)
);
#607=DERIVED_UNIT((#604,#605));
#608=MEASURE_REPRESENTATION_ITEM('density measure',
POSITIVE_RATIO_MEASURE(7850.),#607);
#609=PROPERTY_DEFINITION_REPRESENTATION(#614,#611);
#610=PROPERTY_DEFINITION_REPRESENTATION(#615,#612);
#611=REPRESENTATION('material name',(#613),#1014);
#612=REPRESENTATION('density',(#608),#1014);
#613=DESCRIPTIVE_REPRESENTATION_ITEM('Steel','Steel');
#614=PROPERTY_DEFINITION('material property','material name',#1024);
#615=PROPERTY_DEFINITION('material property','density of part',#1024);
#616=AXIS2_PLACEMENT_3D('',#841,#671,#672);
#617=AXIS2_PLACEMENT_3D('',#842,#673,#674);
#618=AXIS2_PLACEMENT_3D('',#845,#675,#676);
#619=AXIS2_PLACEMENT_3D('',#849,#678,#679);
#620=AXIS2_PLACEMENT_3D('',#853,#681,#682);
#621=AXIS2_PLACEMENT_3D('',#857,#684,#685);
#622=AXIS2_PLACEMENT_3D('',#859,#687,#688);
#623=AXIS2_PLACEMENT_3D('',#864,#690,#691);
#624=AXIS2_PLACEMENT_3D('',#868,#693,#694);
#625=AXIS2_PLACEMENT_3D('',#872,#696,#697);
#626=AXIS2_PLACEMENT_3D('',#875,#699,#700);
#627=AXIS2_PLACEMENT_3D('',#877,#701,#702);
#628=AXIS2_PLACEMENT_3D('',#879,#703,#704);
#629=AXIS2_PLACEMENT_3D('',#881,#705,#706);
#630=AXIS2_PLACEMENT_3D('',#883,#707,#708);
#631=AXIS2_PLACEMENT_3D('',#884,#709,#710);
#632=AXIS2_PLACEMENT_3D('',#893,#715,#716);
#633=AXIS2_PLACEMENT_3D('',#912,#727,#728);
#634=AXIS2_PLACEMENT_3D('',#918,#732,#733);
#635=AXIS2_PLACEMENT_3D('',#920,#734,#735);
#636=AXIS2_PLACEMENT_3D('',#922,#737,#738);
#637=AXIS2_PLACEMENT_3D('',#924,#739,#740);
#638=AXIS2_PLACEMENT_3D('',#926,#742,#743);
#639=AXIS2_PLACEMENT_3D('',#928,#744,#745);
#640=AXIS2_PLACEMENT_3D('',#930,#747,#748);
#641=AXIS2_PLACEMENT_3D('',#932,#749,#750);
#642=AXIS2_PLACEMENT_3D('',#934,#752,#753);
#643=AXIS2_PLACEMENT_3D('',#938,#755,#756);
#644=AXIS2_PLACEMENT_3D('',#940,#758,#759);
#645=AXIS2_PLACEMENT_3D('',#944,#762,#763);
#646=AXIS2_PLACEMENT_3D('',#946,#764,#765);
#647=AXIS2_PLACEMENT_3D('',#948,#767,#768);
#648=AXIS2_PLACEMENT_3D('',#950,#769,#770);
#649=AXIS2_PLACEMENT_3D('',#952,#772,#773);
#650=AXIS2_PLACEMENT_3D('',#954,#774,#775);
#651=AXIS2_PLACEMENT_3D('',#956,#777,#778);
#652=AXIS2_PLACEMENT_3D('',#960,#780,#781);
#653=AXIS2_PLACEMENT_3D('',#964,#783,#784);
#654=AXIS2_PLACEMENT_3D('',#968,#786,#787);
#655=AXIS2_PLACEMENT_3D('',#972,#789,#790);
#656=AXIS2_PLACEMENT_3D('',#978,#795,#796);
#657=AXIS2_PLACEMENT_3D('',#981,#799,#800);
#658=AXIS2_PLACEMENT_3D('',#983,#802,#803);
#659=AXIS2_PLACEMENT_3D('',#986,#806,#807);
#660=AXIS2_PLACEMENT_3D('',#987,#808,#809);
#661=AXIS2_PLACEMENT_3D('',#990,#812,#813);
#662=AXIS2_PLACEMENT_3D('',#991,#814,#815);
#663=AXIS2_PLACEMENT_3D('',#993,#817,#818);
#664=AXIS2_PLACEMENT_3D('',#1002,#824,#825);
#665=AXIS2_PLACEMENT_3D('',#1003,#826,#827);
#666=AXIS2_PLACEMENT_3D('',#1005,#829,#830);
#667=AXIS2_PLACEMENT_3D('',#1007,#832,#833);
#668=AXIS2_PLACEMENT_3D('',#1009,#835,#836);
#669=AXIS2_PLACEMENT_3D('',#1010,#837,#838);
#670=AXIS2_PLACEMENT_3D('',#1011,#839,#840);
#671=DIRECTION('axis',(0.,0.,1.));
#672=DIRECTION('refdir',(1.,0.,0.));
#673=DIRECTION('center_axis',(0.,0.,-1.));
#674=DIRECTION('ref_axis',(1.,0.,0.));
#675=DIRECTION('center_axis',(0.,0.,-1.));
#676=DIRECTION('ref_axis',(1.,0.,0.));
#677=DIRECTION('',(-1.,0.,0.));
#678=DIRECTION('center_axis',(0.,0.,-1.));
#679=DIRECTION('ref_axis',(1.,0.,0.));
#680=DIRECTION('',(0.,1.,0.));
#681=DIRECTION('center_axis',(0.,0.,-1.));
#682=DIRECTION('ref_axis',(1.,0.,0.));
#683=DIRECTION('',(1.,0.,0.));
#684=DIRECTION('center_axis',(0.,0.,-1.));
#685=DIRECTION('ref_axis',(1.,0.,0.));
#686=DIRECTION('',(0.,-1.,0.));
#687=DIRECTION('center_axis',(0.,0.,-1.));
#688=DIRECTION('ref_axis',(1.,0.,0.));
#689=DIRECTION('',(-1.,5.34589647678388E-16,0.));
#690=DIRECTION('center_axis',(0.,0.,-1.));
#691=DIRECTION('ref_axis',(5.4657133520008E-15,-1.,0.));
#692=DIRECTION('',(0.,1.,0.));
#693=DIRECTION('center_axis',(0.,0.,-1.));
#694=DIRECTION('ref_axis',(-1.,-2.73285667600039E-15,0.));
#695=DIRECTION('',(1.,8.90982746130647E-17,0.));
#696=DIRECTION('center_axis',(0.,0.,-1.));
#697=DIRECTION('ref_axis',(0.,1.,0.));
#698=DIRECTION('',(0.,-1.,0.));
#699=DIRECTION('center_axis',(0.,0.,-1.));
#700=DIRECTION('ref_axis',(1.,5.46571335200078E-15,0.));
#701=DIRECTION('center_axis',(0.,0.,1.));
#702=DIRECTION('ref_axis',(1.,0.,0.));
#703=DIRECTION('center_axis',(0.,0.,1.));
#704=DIRECTION('ref_axis',(1.,0.,0.));
#705=DIRECTION('center_axis',(0.,0.,1.));
#706=DIRECTION('ref_axis',(1.,0.,0.));
#707=DIRECTION('center_axis',(0.,0.,1.));
#708=DIRECTION('ref_axis',(1.,0.,0.));
#709=DIRECTION('center_axis',(-1.,0.,0.));
#710=DIRECTION('ref_axis',(0.,0.,-1.));
#711=DIRECTION('',(0.,0.,1.));
#712=DIRECTION('',(0.,-1.,0.));
#713=DIRECTION('',(0.,0.,-1.));
#714=DIRECTION('',(0.,1.,0.));
#715=DIRECTION('center_axis',(0.,1.,0.));
#716=DIRECTION('ref_axis',(0.,0.,1.));
#717=DIRECTION('',(1.,0.,0.));
#718=DIRECTION('',(0.,0.,1.));
#719=DIRECTION('',(1.,0.,0.));
#720=DIRECTION('',(0.,0.,1.));
#721=DIRECTION('',(0.,0.,-1.));
#722=DIRECTION('',(1.,0.,0.));
#723=DIRECTION('',(0.,0.,-1.));
#724=DIRECTION('',(1.,0.,0.));
#725=DIRECTION('',(0.,0.,1.));
#726=DIRECTION('',(1.,0.,0.));
#727=DIRECTION('center_axis',(1.,0.,0.));
#728=DIRECTION('ref_axis',(0.,0.,1.));
#729=DIRECTION('',(0.,0.,-1.));
#730=DIRECTION('',(0.,-1.,0.));
#731=DIRECTION('',(0.,-1.,0.));
#732=DIRECTION('center_axis',(0.,0.,-1.));
#733=DIRECTION('ref_axis',(-1.,0.,0.));
#734=DIRECTION('center_axis',(0.,0.,-1.));
#735=DIRECTION('ref_axis',(-1.,0.,0.));
#736=DIRECTION('',(0.,0.,-1.));
#737=DIRECTION('center_axis',(0.,0.,-1.));
#738=DIRECTION('ref_axis',(-1.,0.,0.));
#739=DIRECTION('center_axis',(0.,0.,-1.));
#740=DIRECTION('ref_axis',(-1.,0.,0.));
#741=DIRECTION('',(0.,0.,-1.));
#742=DIRECTION('center_axis',(0.,0.,-1.));
#743=DIRECTION('ref_axis',(-1.,0.,0.));
#744=DIRECTION('center_axis',(0.,0.,-1.));
#745=DIRECTION('ref_axis',(-1.,0.,0.));
#746=DIRECTION('',(0.,0.,-1.));
#747=DIRECTION('center_axis',(0.,0.,-1.));
#748=DIRECTION('ref_axis',(-1.,0.,0.));
#749=DIRECTION('center_axis',(0.,0.,-1.));
#750=DIRECTION('ref_axis',(-1.,0.,0.));
#751=DIRECTION('',(0.,0.,-1.));
#752=DIRECTION('center_axis',(0.,0.,-1.));
#753=DIRECTION('ref_axis',(-0.707106781186546,-0.707106781186549,0.));
#754=DIRECTION('',(0.,0.,-1.));
#755=DIRECTION('center_axis',(0.,0.,-1.));
#756=DIRECTION('ref_axis',(-0.707106781186546,-0.707106781186549,0.));
#757=DIRECTION('',(0.,0.,-1.));
#758=DIRECTION('center_axis',(0.,-1.,0.));
#759=DIRECTION('ref_axis',(0.,0.,-1.));
#760=DIRECTION('',(0.,0.,-1.));
#761=DIRECTION('',(-1.,0.,0.));
#762=DIRECTION('center_axis',(0.,0.,1.));
#763=DIRECTION('ref_axis',(-0.707106781186546,0.707106781186549,0.));
#764=DIRECTION('center_axis',(0.,0.,-1.));
#765=DIRECTION('ref_axis',(-0.707106781186546,0.707106781186549,0.));
#766=DIRECTION('',(0.,0.,1.));
#767=DIRECTION('center_axis',(0.,0.,1.));
#768=DIRECTION('ref_axis',(0.707106781186547,0.707106781186549,0.));
#769=DIRECTION('center_axis',(0.,0.,-1.));
#770=DIRECTION('ref_axis',(0.707106781186547,0.707106781186549,0.));
#771=DIRECTION('',(0.,0.,-1.));
#772=DIRECTION('center_axis',(0.,0.,1.));
#773=DIRECTION('ref_axis',(0.707106781186548,-0.707106781186548,0.));
#774=DIRECTION('center_axis',(0.,0.,-1.));
#775=DIRECTION('ref_axis',(0.707106781186548,-0.707106781186548,0.));
#776=DIRECTION('',(0.,0.,1.));
#777=DIRECTION('center_axis',(0.,0.,-1.));
#778=DIRECTION('ref_axis',(1.,0.,0.));
#779=DIRECTION('',(-1.,0.,0.));
#780=DIRECTION('center_axis',(0.,0.,-1.));
#781=DIRECTION('ref_axis',(1.,0.,0.));
#782=DIRECTION('',(0.,1.,0.));
#783=DIRECTION('center_axis',(0.,0.,-1.));
#784=DIRECTION('ref_axis',(1.,0.,0.));
#785=DIRECTION('',(1.,0.,0.));
#786=DIRECTION('center_axis',(0.,0.,-1.));
#787=DIRECTION('ref_axis',(1.,0.,0.));
#788=DIRECTION('',(0.,-1.,0.));
#789=DIRECTION('center_axis',(0.,0.,-1.));
#790=DIRECTION('ref_axis',(1.,0.,0.));
#791=DIRECTION('',(-1.,0.,0.));
#792=DIRECTION('',(0.,1.,0.));
#793=DIRECTION('',(0.,-1.,0.));
#794=DIRECTION('',(0.,-1.,0.));
#795=DIRECTION('center_axis',(0.,0.,-1.));
#796=DIRECTION('ref_axis',(1.,0.,0.));
#797=DIRECTION('',(0.,0.,-1.));
#798=DIRECTION('',(0.,0.,1.));
#799=DIRECTION('center_axis',(1.,0.,0.));
#800=DIRECTION('ref_axis',(0.,0.,-1.));
#801=DIRECTION('',(0.,0.,1.));
#802=DIRECTION('center_axis',(0.,0.,-1.));
#803=DIRECTION('ref_axis',(-0.751056805356114,0.660237589908564,0.));
#804=DIRECTION('',(0.,0.,-1.));
#805=DIRECTION('',(0.,0.,1.));
#806=DIRECTION('center_axis',(0.,1.,0.));
#807=DIRECTION('ref_axis',(1.,0.,0.));
#808=DIRECTION('center_axis',(0.,0.,-1.));
#809=DIRECTION('ref_axis',(-0.766846721852137,-0.641830277553678,0.));
#810=DIRECTION('',(0.,0.,-1.));
#811=DIRECTION('',(0.,0.,1.));
#812=DIRECTION('center_axis',(-1.,0.,0.));
#813=DIRECTION('ref_axis',(0.,0.,1.));
#814=DIRECTION('center_axis',(0.,0.,-1.));
#815=DIRECTION('ref_axis',(1.,0.,0.));
#816=DIRECTION('',(0.,0.,-1.));
#817=DIRECTION('center_axis',(0.,-1.,0.));
#818=DIRECTION('ref_axis',(-1.,0.,0.));
#819=DIRECTION('',(-1.,0.,0.));
#820=DIRECTION('',(0.,0.,-1.));
#821=DIRECTION('',(-1.,0.,0.));
#822=DIRECTION('',(0.,0.,1.));
#823=DIRECTION('',(-1.,0.,0.));
#824=DIRECTION('center_axis',(0.,0.,-1.));
#825=DIRECTION('ref_axis',(1.,0.,0.));
#826=DIRECTION('center_axis',(0.,0.,-1.));
#827=DIRECTION('ref_axis',(1.,0.,0.));
#828=DIRECTION('',(0.,-1.,0.));
#829=DIRECTION('center_axis',(-1.,0.,0.));
#830=DIRECTION('ref_axis',(0.,0.,-1.));
#831=DIRECTION('',(0.,-1.,0.));
#832=DIRECTION('center_axis',(1.,0.,0.));
#833=DIRECTION('ref_axis',(0.,0.,1.));
#834=DIRECTION('',(0.,-1.,0.));
#835=DIRECTION('center_axis',(0.,0.,-1.));
#836=DIRECTION('ref_axis',(1.,0.,0.));
#837=DIRECTION('center_axis',(1.,0.,0.));
#838=DIRECTION('ref_axis',(0.,0.,-1.));
#839=DIRECTION('center_axis',(-1.,0.,0.));
#840=DIRECTION('ref_axis',(0.,0.,1.));
#841=CARTESIAN_POINT('',(0.,0.,0.));
#842=CARTESIAN_POINT('Origin',(-8.3426273436438,2.51850754362167,-11.05));
#843=CARTESIAN_POINT('',(37.7269872489063,33.9908732624421,-11.05));
#844=CARTESIAN_POINT('',(28.7411458500707,44.7269872489063,-11.05));
#845=CARTESIAN_POINT('Origin',(34.0000037103891,39.9999992549419,-11.05));
#846=CARTESIAN_POINT('',(-40.8509022861598,44.7269872489063,-11.05));
#847=CARTESIAN_POINT('',(39.7269872489063,44.7269872489063,-11.05));
#848=CARTESIAN_POINT('',(-54.4122419361939,36.11296301305,-11.05));
#849=CARTESIAN_POINT('Origin',(-47.9999975115061,40.9999992698431,-11.05));
#850=CARTESIAN_POINT('',(-54.4122419361939,-25.568664689431,-11.05));
#851=CARTESIAN_POINT('',(-54.4122419361939,44.7269872489063,-11.05));
#852=CARTESIAN_POINT('',(-41.7028043528403,-39.689972161663,-11.05));
#853=CARTESIAN_POINT('Origin',(-49.1036911924671,-33.5708889942259,-11.05));
#854=CARTESIAN_POINT('',(26.7886112789857,-39.689972161663,-11.05));
#855=CARTESIAN_POINT('',(-56.412241936194,-39.689972161663,-11.05));
#856=CARTESIAN_POINT('',(37.7269872489063,-27.246964012293,-11.05));
#857=CARTESIAN_POINT('Origin',(34.0000037103891,-35.0000018626451,-11.05));
#858=CARTESIAN_POINT('',(37.7269872489063,-39.689972161663,-11.05));
#859=CARTESIAN_POINT('Origin',(-8.3426273436438,2.51850754362167,-12.05));
#860=CARTESIAN_POINT('',(41.5,-47.9629849127567,-12.05));
#861=CARTESIAN_POINT('',(-58.1852546872876,-47.9629849127566,-12.05));
#862=CARTESIAN_POINT('',(41.5,-47.9629849127567,-12.05));
#863=CARTESIAN_POINT('',(-64.6852546872876,-41.4629849127566,-12.05));
#864=CARTESIAN_POINT('Origin',(-58.1852546872877,-41.4629849127567,-12.05));
#865=CARTESIAN_POINT('',(-64.6852546872876,46.5,-12.05));
#866=CARTESIAN_POINT('',(-64.6852546872876,-41.4629849127566,-12.05));
#867=CARTESIAN_POINT('',(-58.1852546872876,53.,-12.05));
#868=CARTESIAN_POINT('Origin',(-58.1852546872876,46.5,-12.05));
#869=CARTESIAN_POINT('',(41.5,53.,-12.05));
#870=CARTESIAN_POINT('',(-58.1852546872876,53.,-12.05));
#871=CARTESIAN_POINT('',(48.,46.5,-12.05));
#872=CARTESIAN_POINT('Origin',(41.5,46.5,-12.05));
#873=CARTESIAN_POINT('',(48.,-41.4629849127567,-12.05));
#874=CARTESIAN_POINT('',(48.,46.5,-12.05));
#875=CARTESIAN_POINT('Origin',(41.5,-41.4629849127567,-12.05));
#876=CARTESIAN_POINT('',(-49.87950114583,-37.3400011458,-12.05));
#877=CARTESIAN_POINT('Origin',(-50.78000114583,-37.3400011458,-12.05));
#878=CARTESIAN_POINT('',(35.9605011458201,41.99000114583,-12.05));
#879=CARTESIAN_POINT('Origin',(35.06000114582,41.99000114583,-12.05));
#880=CARTESIAN_POINT('',(35.96050114582,-37.3400011458,-12.05));
#881=CARTESIAN_POINT('Origin',(35.06000114582,-37.3400011458,-12.05));
#882=CARTESIAN_POINT('',(-49.8797252903857,41.99000114583,-12.05));
#883=CARTESIAN_POINT('Origin',(-50.78000114583,41.99000114583,-12.05));
#884=CARTESIAN_POINT('Origin',(-3.30488036493193,53.,-0.05));
#885=CARTESIAN_POINT('',(-3.30488036493193,44.7269872489063,-4.63828215506632));
#886=CARTESIAN_POINT('',(-3.30488036493193,44.7269872489063,-0.05));
#887=CARTESIAN_POINT('',(-3.30488036493193,44.7269872489063,-0.05));
#888=CARTESIAN_POINT('',(-3.30488036493193,53.,-4.63828215506632));
#889=CARTESIAN_POINT('',(-3.30488036493193,53.,-4.63828215506632));
#890=CARTESIAN_POINT('',(-3.30488036493193,53.,-0.05));
#891=CARTESIAN_POINT('',(-3.30488036493193,53.,-0.05));
#892=CARTESIAN_POINT('',(-3.30488036493193,27.7592537718108,-0.05));
#893=CARTESIAN_POINT('Origin',(-61.6852546872876,53.,-0.05));
#894=CARTESIAN_POINT('',(10.3189345579028,53.,-4.63828215506632));
#895=CARTESIAN_POINT('',(-32.4950675261098,53.,-4.63828215506632));
#896=CARTESIAN_POINT('',(10.3189345579028,53.,-0.05));
#897=CARTESIAN_POINT('',(10.3189345579028,53.,-2.34414107753316));
#898=CARTESIAN_POINT('',(41.5,53.,-0.05));
#899=CARTESIAN_POINT('',(-61.6852546872876,53.,-0.05));
#900=CARTESIAN_POINT('',(41.5,53.,-0.05));
#901=CARTESIAN_POINT('',(-58.1852546872876,53.,-0.05));
#902=CARTESIAN_POINT('',(-58.1852546872876,53.,-0.05));
#903=CARTESIAN_POINT('',(-34.9631740559464,53.,-0.05));
#904=CARTESIAN_POINT('',(-61.6852546872876,53.,-0.05));
#905=CARTESIAN_POINT('',(-34.9631740559464,53.,-2.51468146569532));
#906=CARTESIAN_POINT('',(-34.9631740559464,53.,-0.05));
#907=CARTESIAN_POINT('',(-18.7132371605288,53.,-2.51468146569532));
#908=CARTESIAN_POINT('',(-48.324214371617,53.,-2.51468146569532));
#909=CARTESIAN_POINT('',(-18.7132371605288,53.,-0.05));
#910=CARTESIAN_POINT('',(-18.7132371605288,53.,-1.28234073284766));
#911=CARTESIAN_POINT('',(-61.6852546872876,53.,-0.05));
#912=CARTESIAN_POINT('Origin',(10.3189345579028,53.,-4.63828215506632));
#913=CARTESIAN_POINT('',(10.3189345579028,44.7269872489063,-0.05));
#914=CARTESIAN_POINT('',(10.3189345579028,44.7269872489063,-4.63828215506632));
#915=CARTESIAN_POINT('',(10.3189345579028,44.7269872489063,-2.34414107753316));
#916=CARTESIAN_POINT('',(10.3189345579028,27.7592537718108,-0.05));
#917=CARTESIAN_POINT('',(10.3189345579028,53.,-4.63828215506632));
#918=CARTESIAN_POINT('Origin',(-50.78000114583,-37.3400011458,1.56));
#919=CARTESIAN_POINT('',(-49.87950114583,-37.3400011458,-0.05));
#920=CARTESIAN_POINT('Origin',(-50.78000114583,-37.3400011458,-0.05));
#921=CARTESIAN_POINT('',(-49.87950114583,-37.3400011458,1.56));
#922=CARTESIAN_POINT('Origin',(35.06000114582,-37.3400011458,1.56));
#923=CARTESIAN_POINT('',(35.96050114582,-37.3400011458,-0.05));
#924=CARTESIAN_POINT('Origin',(35.06000114582,-37.3400011458,-0.05));
#925=CARTESIAN_POINT('',(35.96050114582,-37.3400011458,1.56));
#926=CARTESIAN_POINT('Origin',(35.06000114582,41.99000114583,1.56));
#927=CARTESIAN_POINT('',(35.9605011458201,41.99000114583,-0.05));
#928=CARTESIAN_POINT('Origin',(35.06000114582,41.99000114583,-0.05));
#929=CARTESIAN_POINT('',(35.9605011458201,41.99000114583,1.56));
#930=CARTESIAN_POINT('Origin',(-50.78000114583,41.99000114583,1.56));
#931=CARTESIAN_POINT('',(-49.8797252903857,41.99000114583,-0.05));
#932=CARTESIAN_POINT('Origin',(-50.78000114583,41.99000114583,-0.05));
#933=CARTESIAN_POINT('',(-49.8797252903857,41.99000114583,1.56));
#934=CARTESIAN_POINT('Origin',(-58.1852546872876,-41.4629849127566,-0.05));
#935=CARTESIAN_POINT('',(-58.1852546872876,-47.9629849127566,-0.05));
#936=CARTESIAN_POINT('',(-58.1852546872876,-47.9629849127566,-11.05));
#937=CARTESIAN_POINT('',(-64.6852546872876,-41.4629849127566,-0.05));
#938=CARTESIAN_POINT('Origin',(-58.1852546872876,-41.4629849127566,-0.05));
#939=CARTESIAN_POINT('',(-64.6852546872876,-41.4629849127566,-0.05));
#940=CARTESIAN_POINT('Origin',(45.,-47.9629849127566,-0.05));
#941=CARTESIAN_POINT('',(41.5,-47.9629849127566,-0.05));
#942=CARTESIAN_POINT('',(41.5,-47.9629849127566,-0.05));
#943=CARTESIAN_POINT('',(-61.6852546872876,-47.9629849127566,-0.05));
#944=CARTESIAN_POINT('Origin',(-58.1852546872876,46.5,-0.05));
#945=CARTESIAN_POINT('',(-64.6852546872876,46.5,-0.05));
#946=CARTESIAN_POINT('Origin',(-58.1852546872876,46.5,-0.05));
#947=CARTESIAN_POINT('',(-64.6852546872876,46.5,-0.05));
#948=CARTESIAN_POINT('Origin',(41.5,46.5,-0.05));
#949=CARTESIAN_POINT('',(48.,46.5,-0.05));
#950=CARTESIAN_POINT('Origin',(41.5,46.5,-0.05));
#951=CARTESIAN_POINT('',(48.,46.5,-0.05));
#952=CARTESIAN_POINT('Origin',(41.5,-41.4629849127567,-0.05));
#953=CARTESIAN_POINT('',(48.,-41.4629849127567,-0.05));
#954=CARTESIAN_POINT('Origin',(41.5,-41.4629849127567,-0.05));
#955=CARTESIAN_POINT('',(48.,-41.4629849127567,-0.05));
#956=CARTESIAN_POINT('Origin',(-8.3426273436438,2.51850754362168,-0.05));
#957=CARTESIAN_POINT('',(28.7411458500707,44.7269872489063,-0.05));
#958=CARTESIAN_POINT('',(39.7269872489063,44.7269872489063,-0.05));
#959=CARTESIAN_POINT('',(37.7269872489063,33.9908732624421,-0.05));
#960=CARTESIAN_POINT('Origin',(34.0000037103891,39.9999992549419,-0.05));
#961=CARTESIAN_POINT('',(37.7269872489063,-27.246964012293,-0.05));
#962=CARTESIAN_POINT('',(37.7269872489063,-39.689972161663,-0.05));
#963=CARTESIAN_POINT('',(26.7886112789857,-39.689972161663,-0.05));
#964=CARTESIAN_POINT('Origin',(34.0000037103891,-35.0000018626451,-0.05));
#965=CARTESIAN_POINT('',(-41.7028043528403,-39.689972161663,-0.05));
#966=CARTESIAN_POINT('',(-56.412241936194,-39.689972161663,-0.05));
#967=CARTESIAN_POINT('',(-54.4122419361939,-25.568664689431,-0.05));
#968=CARTESIAN_POINT('Origin',(-49.1036911924671,-33.5708889942259,-0.05));
#969=CARTESIAN_POINT('',(-54.4122419361939,36.11296301305,-0.05));
#970=CARTESIAN_POINT('',(-54.4122419361939,44.7269872489063,-0.05));
#971=CARTESIAN_POINT('',(-40.8509022861598,44.7269872489063,-0.05));
#972=CARTESIAN_POINT('Origin',(-47.9999975115061,40.9999992698431,-0.05));
#973=CARTESIAN_POINT('',(-34.9631740559464,44.7269872489063,-0.05));
#974=CARTESIAN_POINT('',(39.7269872489063,44.7269872489063,-0.05));
#975=CARTESIAN_POINT('',(-34.9631740559465,27.7592537718108,-0.05));
#976=CARTESIAN_POINT('',(-64.6852546872876,-44.9629849127566,-0.05));
#977=CARTESIAN_POINT('',(48.,50.,-0.05));
#978=CARTESIAN_POINT('Origin',(-49.1036911924671,-33.5708889942259,-0.05));
#979=CARTESIAN_POINT('',(-54.4122419361939,-25.568664689431,-0.05));
#980=CARTESIAN_POINT('',(-41.7028043528403,-39.689972161663,-0.05));
#981=CARTESIAN_POINT('Origin',(-54.4122419361939,44.7269872489063,-0.05));
#982=CARTESIAN_POINT('',(-54.4122419361939,36.11296301305,-0.05));
#983=CARTESIAN_POINT('Origin',(34.0000037103891,-35.0000018626451,-0.05));
#984=CARTESIAN_POINT('',(26.7886112789857,-39.689972161663,-0.05));
#985=CARTESIAN_POINT('',(37.7269872489063,-27.246964012293,-0.05));
#986=CARTESIAN_POINT('Origin',(-56.412241936194,-39.689972161663,-0.05));
#987=CARTESIAN_POINT('Origin',(34.0000037103891,39.9999992549419,-0.05));
#988=CARTESIAN_POINT('',(37.7269872489063,33.9908732624421,-0.05));
#989=CARTESIAN_POINT('',(28.7411458500707,44.7269872489063,-0.05));
#990=CARTESIAN_POINT('Origin',(37.7269872489063,-39.689972161663,-0.05));
#991=CARTESIAN_POINT('Origin',(-47.9999975115061,40.9999992698431,-0.05));
#992=CARTESIAN_POINT('',(-40.8509022861598,44.7269872489063,-0.05));
#993=CARTESIAN_POINT('Origin',(39.7269872489063,44.7269872489063,-0.05));
#994=CARTESIAN_POINT('',(-18.7132371605288,44.7269872489063,-0.05));
#995=CARTESIAN_POINT('',(39.7269872489063,44.7269872489063,-0.05));
#996=CARTESIAN_POINT('',(-18.7132371605288,44.7269872489063,-2.51468146569532));
#997=CARTESIAN_POINT('',(-18.7132371605288,44.7269872489063,-1.28234073284766));
#998=CARTESIAN_POINT('',(-34.9631740559464,44.7269872489063,-2.51468146569532));
#999=CARTESIAN_POINT('',(2.38190659647998,44.7269872489063,-2.51468146569532));
#1000=CARTESIAN_POINT('',(-34.9631740559464,44.7269872489063,-0.05));
#1001=CARTESIAN_POINT('',(18.2110534419872,44.7269872489063,-4.63828215506632));
#1002=CARTESIAN_POINT('Origin',(-1.61388682677821,53.,-4.63828215506632));
#1003=CARTESIAN_POINT('Origin',(-8.3426273436438,2.51850754362168,-0.05));
#1004=CARTESIAN_POINT('',(-18.7132371605288,27.7592537718108,-0.05));
#1005=CARTESIAN_POINT('Origin',(-34.9631740559464,53.,-0.05));
#1006=CARTESIAN_POINT('',(-34.9631740559464,53.,-2.51468146569532));
#1007=CARTESIAN_POINT('Origin',(-18.7132371605288,53.,-2.51468146569532));
#1008=CARTESIAN_POINT('',(-18.7132371605288,53.,-2.51468146569532));
#1009=CARTESIAN_POINT('Origin',(-34.9631740559464,53.,-2.51468146569532));
#1010=CARTESIAN_POINT('Origin',(48.,50.,-0.05));
#1011=CARTESIAN_POINT('Origin',(-64.6852546872876,-44.9629849127566,-0.05));
#1012=UNCERTAINTY_MEASURE_WITH_UNIT(LENGTH_MEASURE(0.01),#1016,
'DISTANCE_ACCURACY_VALUE',
'Maximum model space distance between geometric entities at asserted c
onnectivities');
#1013=UNCERTAINTY_MEASURE_WITH_UNIT(LENGTH_MEASURE(0.01),#1016,
'DISTANCE_ACCURACY_VALUE',
'Maximum model space distance between geometric entities at asserted c
onnectivities');
#1014=(
GEOMETRIC_REPRESENTATION_CONTEXT(3)
GLOBAL_UNCERTAINTY_ASSIGNED_CONTEXT((#1012))
GLOBAL_UNIT_ASSIGNED_CONTEXT((#1016,#1018,#1019))
REPRESENTATION_CONTEXT('','3D')
);
#1015=(
GEOMETRIC_REPRESENTATION_CONTEXT(3)
GLOBAL_UNCERTAINTY_ASSIGNED_CONTEXT((#1013))
GLOBAL_UNIT_ASSIGNED_CONTEXT((#1016,#1018,#1019))
REPRESENTATION_CONTEXT('','3D')
);
#1016=(
LENGTH_UNIT()
NAMED_UNIT(*)
SI_UNIT(.MILLI.,.METRE.)
);
#1017=(
LENGTH_UNIT()
NAMED_UNIT(*)
SI_UNIT($,.METRE.)
);
#1018=(
NAMED_UNIT(*)
PLANE_ANGLE_UNIT()
SI_UNIT($,.RADIAN.)
);
#1019=(
NAMED_UNIT(*)
SI_UNIT($,.STERADIAN.)
SOLID_ANGLE_UNIT()
);
#1020=SHAPE_DEFINITION_REPRESENTATION(#1021,#1022);
#1021=PRODUCT_DEFINITION_SHAPE('',$,#1024);
#1022=SHAPE_REPRESENTATION('',(#616),#1014);
#1023=PRODUCT_DEFINITION_CONTEXT('part definition',#1028,'design');
#1024=PRODUCT_DEFINITION('2026-09-10-19-06-22-338','spelaro (Assembly)',
#1025,#1023);
#1025=PRODUCT_DEFINITION_FORMATION('',$,#1030);
#1026=PRODUCT_RELATED_PRODUCT_CATEGORY('spelaro (Assembly)',
'spelaro (Assembly)',(#1030));
#1027=APPLICATION_PROTOCOL_DEFINITION('international standard',
'automotive_design',2009,#1028);
#1028=APPLICATION_CONTEXT(
'Core Data for Automotive Mechanical Design Process');
#1029=PRODUCT_CONTEXT('part definition',#1028,'mechanical');
#1030=PRODUCT('2026-09-10-19-06-22-338','spelaro (Assembly)',$,(#1029));
#1031=PRESENTATION_STYLE_ASSIGNMENT((#1032));
#1032=SURFACE_STYLE_USAGE(.BOTH.,#1033);
#1033=SURFACE_SIDE_STYLE('',(#1034));
#1034=SURFACE_STYLE_FILL_AREA(#1035);
#1035=FILL_AREA_STYLE('Steel - Satin',(#1036));
#1036=FILL_AREA_STYLE_COLOUR('Steel - Satin',#1037);
#1037=COLOUR_RGB('Steel - Satin',0.627450980392157,0.627450980392157,0.627450980392157);
ENDSEC;
END-ISO-10303-21;
